<?xml version="1.0" encoding="utf-8"?>
<!-- Generator: Adobe Illustrator 16.0.0, SVG Export Plug-In . SVG Version: 6.00 Build 0)  -->
<!DOCTYPE svg PUBLIC "-//W3C//DTD SVG 1.1//EN" "http://www.w3.org/Graphics/SVG/1.1/DTD/svg11.dtd">
<svg version="1.1" id="Layer_1" xmlns="http://www.w3.org/2000/svg" xmlns:xlink="http://www.w3.org/1999/xlink" x="0px" y="0px"
	 width="983.951px" height="315.092px" viewBox="0 0 983.951 315.092" enable-background="new 0 0 983.951 315.092"
	 xml:space="preserve">
<polygon fill="#660099" points="112.956,11.72 9.942,11.72 9.942,110.475 197.095,110.475 197.095,54.065 "/>
<g>
	<path fill="#660099" stroke="#660099" stroke-width="10.0924" stroke-miterlimit="10" d="M241.623,194.24v-21.634h75.989
		c21.673,0,32.578,10.629,32.716,31.884v76.816h-89.55c-20.017,0-30.021-9.043-30.021-27.124v-15.01
		c0-18.357,9.25-27.577,27.739-27.641h40.069v21.737h-30.44c-10.418,0-15.666,4.248-15.735,12.734h0.104
		c0,9.043,4.834,13.562,14.493,13.562h61.594l-0.099-48.136c0-11.458-4.863-17.188-14.601-17.188H241.623z"/>
	<path fill="#660099" stroke="#660099" stroke-width="10.0924" stroke-miterlimit="10" d="M445.777,208.008
		c-0.143-9.038-4.766-13.596-13.872-13.665h-34.476v86.963h-21.742l-0.103-108.597h130.132c21.879,0.064,32.854,10.94,32.923,32.608
		v75.988h-21.949l-0.103-72.677c-0.074-9.457-4.903-14.217-14.493-14.286h-33.855V281.1h-22.462V208.008z"/>
	<path fill="#660099" stroke="#660099" stroke-width="10.0924" stroke-miterlimit="10" d="M632.117,208.008
		c-0.139-9.038-4.766-13.596-13.873-13.665h-34.476v86.963h-21.742l-0.098-108.597H692.06c21.875,0.064,32.851,10.94,32.919,32.608
		v75.988h-21.949l-0.104-72.677c-0.067-9.457-4.902-14.217-14.493-14.286h-33.854V281.1h-22.461V208.008z"/>
	<path fill="#660099" stroke="#660099" stroke-width="10.0924" stroke-miterlimit="10" d="M863.079,259.564v21.742H780.88
		c-21.534-0.207-32.4-10.871-32.607-31.992v-44.1c0-21.668,10.866-32.539,32.607-32.608h54.454
		c21.53,0.138,32.406,9.175,32.612,27.118v33.958h-68.758v-22.15h46.913l0.104-9.009c-0.069-5.45-3.691-8.18-10.871-8.18h-48.762
		c-11.039,0-16.563,5.174-16.563,15.533v33.643c0,10.762,4.903,16.115,14.699,16.045H863.079z"/>
	<path fill="#660099" stroke="#660099" stroke-width="10.0924" stroke-miterlimit="10" d="M893.202,281.307v-76.506
		c0.07-21.323,10.94-32.027,32.613-32.091h43.997v21.426h-40.581c-9.384,0.069-14.148,4.593-14.287,13.562v73.608H893.202z"/>
</g>
<g>
	<path fill="#660099" stroke="#660099" stroke-width="10.0924" stroke-miterlimit="10" d="M107.017,167.348h65.098
		c22.186,0.069,33.313,11.024,33.387,32.865V304.28h-21.91v-99.371c0-10.433-4.8-15.651-14.4-15.651l-62.387-0.104v87.633H85.004
		V123.529h22.013V167.348z"/>
</g>
</svg>
